<?xml version="1.0" encoding="UTF-8"?>
<svg id="Capa_1" xmlns="http://www.w3.org/2000/svg" xmlns:xlink="http://www.w3.org/1999/xlink" version="1.1" viewBox="0 0 190.4 200">
  <!-- Generator: Adobe Illustrator 29.0.0, SVG Export Plug-In . SVG Version: 2.1.0 Build 186)  -->
  <defs>
    <style>
      .st0 {
        fill: #39a900;
      }

      .st1 {
        clip-path: url(#clippath);
      }
    </style>
    <clipPath id="clippath">
      <path class="st0" d="M45.6,148c-.5-.1-1-.5-1.3-1-.3-.5-.4-1-.2-1.6.2-1,1.1-1.6,2-1.6s.3,0,.5,0c1.1.3,1.8,1.4,1.5,2.6-.1.5-.5,1-1,1.3-.3.2-.7.3-1.1.3s-.3,0-.5,0M143.8,147.7c-.5-.3-.8-.8-1-1.3-.3-1.1.4-2.3,1.5-2.6.2,0,.3,0,.5,0,.4,0,.7.1,1.1.3.5.3.8.8,1,1.3.3,1.1-.4,2.3-1.5,2.5-.2,0-.3,0-.5,0-.4,0-.7-.1-1.1-.3M91.3,140.3c0-2.3,1.9-4.3,4.3-4.3s4.3,1.9,4.3,4.3-1.9,4.3-4.3,4.3-4.3-1.9-4.3-4.3M55.7,85.5c0-1.2.9-2.1,2.1-2.1s2.1.9,2.1,2.1-.9,2.1-2.1,2.1-2.1-.9-2.1-2.1M131.1,85.5c0-1.2.9-2.1,2.1-2.1s2.1.9,2.1,2.1-.9,2.1-2.1,2.1-2.1-.9-2.1-2.1M47.9,99.8c-5.7-10.7-6-23.5-.8-34.4,12,1.8,22.4,9.1,28.1,19.8,5.1,9.7,5.9,20.9,2.2,31l-13.8-25.8c1.2-1.3,1.9-3.1,1.9-5,0-4.2-3.5-7.7-7.7-7.7s-7.7,3.5-7.7,7.7,3.5,7.7,7.7,7.7.6,0,.9,0l13.8,25.8c-10.5-2.6-19.4-9.4-24.6-19.1M115.8,85.3c5.7-10.7,16.1-18.1,28.1-19.8,5.2,10.9,5,23.7-.8,34.4-5.2,9.7-14.1,16.5-24.6,19.1l13.8-25.8c.3,0,.6,0,.9,0,4.2,0,7.7-3.5,7.7-7.7s-3.5-7.7-7.7-7.7-7.7,3.5-7.7,7.7.7,3.7,1.9,5l-13.8,25.8c-3.7-10.1-3-21.4,2.2-31M142.5,28.1c0-1.8,1.5-3.4,3.4-3.4s3.4,1.5,3.4,3.4-.2,1.3-.5,1.8c0,0,0,0,0,0,0,0,0,0,0,.1-.6.8-1.6,1.4-2.7,1.4-1.8,0-3.4-1.5-3.4-3.4M87.9,12.6c0-1.8,1.5-3.4,3.4-3.4s3.4,1.5,3.4,3.4-1.5,3.4-3.4,3.4-3.4-1.5-3.4-3.4M82.5,10.7C37.3,17.1,3.4,55.8,3.4,101.8s41.3,92.1,92.1,92.1,3.1,0,4.7-.1c49-2.5,87.4-42.9,87.4-92s-12.1-53.3-33.3-70.9c.3-.9.5-1.8.5-2.8,0-4.9-4-8.9-8.9-8.9s-8.9,4-8.9,8.9,4,8.9,8.9,8.9,3.7-.6,5.1-1.6c19.8,16.5,31.1,40.6,31.1,66.4,0,43.4-31.9,79.5-73.9,85.6,6.9-6,14.6-15.1,17.3-27.4,3.8-4.8,8.3-8.1,13.3-9.6.6.8,1.4,1.6,2.3,2.1,1.2.7,2.6,1.1,4,1.1s1.3,0,1.9-.2c4.1-1,6.6-5.2,5.6-9.3h0c-.5-2-1.7-3.7-3.5-4.7-1.8-1.1-3.8-1.4-5.8-.9-3.2.8-5.4,3.5-5.8,6.5-4,1.2-7.6,3.2-10.9,6,0-3.6-.4-7.4-1.3-11.4-1.2-4.9-3.5-9.9-6.7-14.9,12.7-2.6,23.6-10.7,29.8-22.3,6.9-13,6.9-28.4,0-41.4-.5-1-1.6-1.6-2.7-1.5-14.6,1.5-27.5,10.1-34.4,23-6.9,12.9-6.9,28.3,0,41.2.1.2.2.4.4.6,4.3,5.6,7.1,11.1,8.4,16.5,5.9,25-12,40.7-21.2,47v-38.2c4.1-1.2,7-5,7-9.4s-4.4-9.8-9.8-9.8-9.8,4.4-9.8,9.8,3,8.2,7.1,9.4v38.2c-9.2-6.2-27.2-22-21.3-47,1.3-5.4,4.1-10.9,8.3-16.5.2-.2.3-.4.4-.6,6.9-12.9,6.9-28.3,0-41.2-6.9-13-19.8-21.6-34.4-23-1.1,0-2.2.5-2.7,1.5-7,12.9-7,28.4,0,41.4,6.2,11.6,17.1,19.7,29.8,22.3-3.3,5-5.6,10-6.7,14.9-1,4-1.4,7.8-1.3,11.3-3.3-2.8-7-4.8-10.9-6-.4-3.1-2.6-5.8-5.8-6.5-4.1-1-8.3,1.5-9.3,5.6-.5,2-.2,4.1.9,5.8,1.1,1.8,2.7,3,4.7,3.5.6.2,1.2.2,1.9.2,1.4,0,2.7-.4,4-1.1.9-.5,1.7-1.3,2.3-2.1,5,1.5,9.4,4.7,13.3,9.6,2.7,12.3,10.4,21.4,17.3,27.4-41.8-6.1-73.9-42.2-73.9-85.6S40.7,22.3,83.1,16.2c1.4,3.1,4.5,5.3,8.2,5.3s8.9-4,8.9-8.9-4-8.9-8.9-8.9-7.8,3-8.7,7"/>
    </clipPath>
  </defs>
  <path class="st0" d="M45.6,148c-.5-.1-1-.5-1.3-1-.3-.5-.4-1-.2-1.6.2-1,1.1-1.6,2-1.6s.3,0,.5,0c1.1.3,1.8,1.4,1.5,2.6-.1.5-.5,1-1,1.3-.3.2-.7.3-1.1.3s-.3,0-.5,0M143.8,147.7c-.5-.3-.8-.8-1-1.3-.3-1.1.4-2.3,1.5-2.6.2,0,.3,0,.5,0,.4,0,.7.1,1.1.3.5.3.8.8,1,1.3.3,1.1-.4,2.3-1.5,2.5-.2,0-.3,0-.5,0-.4,0-.7-.1-1.1-.3M91.3,140.3c0-2.3,1.9-4.3,4.3-4.3s4.3,1.9,4.3,4.3-1.9,4.3-4.3,4.3-4.3-1.9-4.3-4.3M55.7,85.5c0-1.2.9-2.1,2.1-2.1s2.1.9,2.1,2.1-.9,2.1-2.1,2.1-2.1-.9-2.1-2.1M131.1,85.5c0-1.2.9-2.1,2.1-2.1s2.1.9,2.1,2.1-.9,2.1-2.1,2.1-2.1-.9-2.1-2.1M47.9,99.8c-5.7-10.7-6-23.5-.8-34.4,12,1.8,22.4,9.1,28.1,19.8,5.1,9.7,5.9,20.9,2.2,31l-13.8-25.8c1.2-1.3,1.9-3.1,1.9-5,0-4.2-3.5-7.7-7.7-7.7s-7.7,3.5-7.7,7.7,3.5,7.7,7.7,7.7.6,0,.9,0l13.8,25.8c-10.5-2.6-19.4-9.4-24.6-19.1M115.8,85.3c5.7-10.7,16.1-18.1,28.1-19.8,5.2,10.9,5,23.7-.8,34.4-5.2,9.7-14.1,16.5-24.6,19.1l13.8-25.8c.3,0,.6,0,.9,0,4.2,0,7.7-3.5,7.7-7.7s-3.5-7.7-7.7-7.7-7.7,3.5-7.7,7.7.7,3.7,1.9,5l-13.8,25.8c-3.7-10.1-3-21.4,2.2-31M142.5,28.1c0-1.8,1.5-3.4,3.4-3.4s3.4,1.5,3.4,3.4-.2,1.3-.5,1.8c0,0,0,0,0,0,0,0,0,0,0,.1-.6.8-1.6,1.4-2.7,1.4-1.8,0-3.4-1.5-3.4-3.4M87.9,12.6c0-1.8,1.5-3.4,3.4-3.4s3.4,1.5,3.4,3.4-1.5,3.4-3.4,3.4-3.4-1.5-3.4-3.4M82.5,10.7C37.3,17.1,3.4,55.8,3.4,101.8s41.3,92.1,92.1,92.1,3.1,0,4.7-.1c49-2.5,87.4-42.9,87.4-92s-12.1-53.3-33.3-70.9c.3-.9.5-1.8.5-2.8,0-4.9-4-8.9-8.9-8.9s-8.9,4-8.9,8.9,4,8.9,8.9,8.9,3.7-.6,5.1-1.6c19.8,16.5,31.1,40.6,31.1,66.4,0,43.4-31.9,79.5-73.9,85.6,6.9-6,14.6-15.1,17.3-27.4,3.8-4.8,8.3-8.1,13.3-9.6.6.8,1.4,1.6,2.3,2.1,1.2.7,2.6,1.1,4,1.1s1.3,0,1.9-.2c4.1-1,6.6-5.2,5.6-9.3h0c-.5-2-1.7-3.7-3.5-4.7-1.8-1.1-3.8-1.4-5.8-.9-3.2.8-5.4,3.5-5.8,6.5-4,1.2-7.6,3.2-10.9,6,0-3.6-.4-7.4-1.3-11.4-1.2-4.9-3.5-9.9-6.7-14.9,12.7-2.6,23.6-10.7,29.8-22.3,6.9-13,6.9-28.4,0-41.4-.5-1-1.6-1.6-2.7-1.5-14.6,1.5-27.5,10.1-34.4,23-6.9,12.9-6.9,28.3,0,41.2.1.2.2.4.4.6,4.3,5.6,7.1,11.1,8.4,16.5,5.9,25-12,40.7-21.2,47v-38.2c4.1-1.2,7-5,7-9.4s-4.4-9.8-9.8-9.8-9.8,4.4-9.8,9.8,3,8.2,7.1,9.4v38.2c-9.2-6.2-27.2-22-21.3-47,1.3-5.4,4.1-10.9,8.3-16.5.2-.2.3-.4.4-.6,6.9-12.9,6.9-28.3,0-41.2-6.9-13-19.8-21.6-34.4-23-1.1,0-2.2.5-2.7,1.5-7,12.9-7,28.4,0,41.4,6.2,11.6,17.1,19.7,29.8,22.3-3.3,5-5.6,10-6.7,14.9-1,4-1.4,7.8-1.3,11.3-3.3-2.8-7-4.8-10.9-6-.4-3.1-2.6-5.8-5.8-6.5-4.1-1-8.3,1.5-9.3,5.6-.5,2-.2,4.1.9,5.8,1.1,1.8,2.7,3,4.7,3.5.6.2,1.2.2,1.9.2,1.4,0,2.7-.4,4-1.1.9-.5,1.7-1.3,2.3-2.1,5,1.5,9.4,4.7,13.3,9.6,2.7,12.3,10.4,21.4,17.3,27.4-41.8-6.1-73.9-42.2-73.9-85.6S40.7,22.3,83.1,16.2c1.4,3.1,4.5,5.3,8.2,5.3s8.9-4,8.9-8.9-4-8.9-8.9-8.9-7.8,3-8.7,7"/>
  <g class="st1">
    <rect class="st0" x="3.4" y="3.7" width="184.2" height="190.3"/>
  </g>
</svg>